<svg xmlns="http://www.w3.org/2000/svg" width="636.682" height="240" viewBox="0 0 636.682 240"><path d="M577.54 87.219c13.024-15.401 25.419-31.32 38.301-46.84 6.71-8.085 13.52-16.065 20.841-23.602v-1.422c-1.416-1.116-1.838-1.08-3.064.245-2.733 2.953-5.444 5.926-8.205 8.852-12.542 13.3-25.42 26.272-38.238 39.304-9.065 9.217-18.157 18.406-26.923 27.91-2.554 2.77-5.093 5.555-7.718 8.42-.268-.418-.474-.721-.662-1.035-6.024-10.062-11.88-20.228-18.107-30.161-8.658-13.807-16.319-28.245-26.795-40.904C499.467 18.919 492.867 9.119 485.403 0h-1.422c-.9.822-1.053 1.712-.336 2.754.29.422.353 1.019.683 1.39.96 1.08.29 2.515 1.02 3.714 5.285 8.687 9.956 17.712 14.605 26.75 3.198 6.216 5.918 12.702 9.942 18.461 1.903 2.724 3.59 5.556 5.135 8.485 6.536 12.394 13.354 24.614 21.881 35.791.302.396.735.737.764 1.305-.11.026-.206.08-.289.064-.74-.15-1.476-.329-2.22-.466-4.7-.866-9.404-1.941-14.188-.648-2.898.784-5.82 1.098-8.82 1.095-5.92-.006-11.822-.438-17.734-.637-8.192-.277-16.185 1.63-24.3 2.223-7.465.546-14.902 1.404-22.353-.1-1.104-.222-2.483-.586-2.934 1.076-.285 1.047.575 1.621 2.571 1.928 14.75 2.27 29.629 3.286 44.482 4.52 14.243 1.184 28.53 1.795 42.756 3.223 2.502.251 4.995.576 7.657.886-.448.566-.733.94-1.033 1.301-8.664 10.423-16.882 21.189-24.115 32.654-6.721 10.655-13.756 21.126-17.48 33.425-2.932 9.678-6.278 19.221-8.092 29.204-.179.985-.202 1.866.867 2.23 1.166.399 1.674-.427 2.137-1.342.415-.817.55-1.868 1.468-2.326.674-.335.94-.883 1.167-1.514 2.872-8.004 6.781-15.494 11.294-22.68 3.043-4.846 6.386-9.527 9.111-14.544 2.338-4.304 5.01-8.335 7.851-12.292 5.32-7.41 11.195-14.451 15.204-22.74 1.259-2.602 2.977-4.935 4.425-7.422 1.595-2.738 3.688-5.057 5.612-7.697.38.579.648.96.89 1.358 6.7 10.983 13.226 22.078 20.138 32.926 9.592 15.054 20.334 29.321 30.646 43.882 7.604 10.735 15.617 21.182 22.716 32.274 2.447 3.823 4.67 7.787 7.308 11.489h1.706c1.013-1.088.437-2.035-.197-3.049-10.678-17.083-21.37-34.159-31.775-51.41-14.48-24.007-27.975-48.587-42.2-72.742-.175-.298-.525-.587-.241-1.184 1.672 0 3.418.01 5.165-.005.663-.006 1.198-.282 1.46-.932.236-.585.178-1.204-.327-1.552-1.344-.927-2.232-2.54-4.085-2.719-.345-.033-.737-.13-.98-.543.234-.28.466-.574.715-.853 5.302-5.924 10.75-11.724 15.883-17.792h-.001zM67.154 91.597h-51.1v-31.44h43.593V45.863H16.038v-30.59H67.16V.852H0v105.213h67.153V91.597h.001zm61.793 13.335c8.276-2.462 15.152-6.864 19.438-14.614 3.309-5.981 4.004-12.453 3.165-19.134-1.262-10.052-6.318-17.362-15.735-21.423-5.678-2.448-11.785-3.033-17.808-3.976-3.967-.622-8.005-.899-11.823-2.282-4.376-1.586-8.112-3.9-9.652-8.661-2.192-6.776.726-14.493 6.865-18.093 4.022-2.358 8.433-2.915 12.998-2.822 7.92.162 15.129 2.226 21.095 7.713.131.12.288.211.518.378l9.836-10.299c.019.022-.12-.17-.29-.327-5.672-5.19-12.199-8.749-19.776-10.25-2.293-.455-4.615-.766-6.924-1.142h-9.952c-2.118.377-4.258.658-6.348 1.15-8.965 2.108-16.278 6.592-20.752 14.922-3.472 6.465-4.072 13.414-3.046 20.557.941 6.56 3.892 12.002 9.243 16.038 4.4 3.32 9.42 5.242 14.787 6.174 6.198 1.076 12.446 1.853 18.654 2.873 5.195.853 9.478 3.195 11.412 8.404 2.608 7.026 1.63 17.138-9.72 20.807-7.984 2.58-16.075 2.087-24.071-.11-5.273-1.45-9.693-4.418-13.52-8.21l-10.56 10.69c1.552 1.625 3.353 3.156 5.24 4.59 6.337 4.82 13.554 7.456 21.388 8.432 8.517 1.061 17.009 1.093 25.336-1.384l.002-.001zm83.596 1.194c15.116-2.78 24.188-12.415 28.27-26.996.408-1.46.876-2.941.843-4.51h-16.027c-.985 3.847-2.424 7.433-4.95 10.473-5.249 6.32-12.148 8.285-20.007 7.147-7.08-1.024-12.385-4.748-15.419-11.342-1.706-3.71-2.12-7.739-2.396-11.757-.603-8.795-.525-17.603-.27-26.406.149-5.154.303-10.364 2.112-15.265 2.873-7.782 8.747-12.002 16.827-12.904 8.886-.992 16.097 2.014 20.863 9.918 1.476 2.45 2.378 5.135 3.122 7.845h16.25a41.84 41.84 0 0 0-2.068-8.044c-4.306-11.844-12.31-19.764-24.635-23.007-2.169-.57-4.412-.86-6.621-1.278h-8.815c-.086.304-.342.255-.568.28-3.21.367-6.356 1.06-9.33 2.315C177.989 7.55 170 15.727 167.62 28.635c-.921 5-1.1 10.061-1.138 15.13-.08 10.65-.48 21.312.744 31.928.665 5.762 2.27 11.264 5.874 15.914 10.098 13.03 23.608 17.431 39.442 14.519h.001zM36.23 189.231c.362 0 .765.116 1.047-.195v-7.898H8.945V163.71h24.169v-8.014H8.96v-16.97h28.343v-7.968c-1.496 0-2.909-.002-4.322 0L0 130.806V189.1c.323.045.646.13.97.131 11.753.007 23.506.007 35.26 0zM392.7 0v240h3.413c-.245-.495-.13-1.026-.13-1.539-.005-78.974-.005-157.948 0-236.922 0-.513-.115-1.044.13-1.539H392.7zM13.527 224.293c2.51-2.06 3.349-5.137 2.272-8.179-.911-2.576-3.172-3.927-6.567-3.937-3.078-.01-6.155-.03-9.232-.044v26.16c.447-.233.93-.127 1.396-.128 3.03-.01 6.062.033 9.093-.016 4.025-.065 6.863-2.703 7.081-6.648.177-3.204-1.128-5.677-4.043-7.208zm-10.904-9.62c2.721.146 5.495-.317 8.23.29 1.97.439 2.938 2.03 2.789 4.18-.155 2.237-1.485 3.922-3.47 4.025-2.49.13-4.991.032-7.55.032v-8.527h.001zm7.81 20.898c-2.551.056-5.105.012-7.808.012-.028-.361-.062-.59-.062-.82-.004-2.973-.003-5.946-.003-9.075 2.89-.034 5.711-.252 8.503.094 2.311.285 4.204 3.08 3.976 5.48-.236 2.486-2.07 4.253-4.606 4.309zM320.78 6.877C314.814 2.69 308.05.917 300.847.875 287.723.797 274.597.85 261.471.86c-.447 0-.937-.161-1.324.142V105.98h15.9V64.789h22.467c2.654 0 5.303-.111 7.926-.533 9.419-1.515 17.158-5.775 22.389-13.97 3.97-6.22 5.268-13.132 4.691-20.386-.76-9.564-4.771-17.431-12.74-23.023zm-4.65 33.494c-2.519 6.28-7.845 9.148-14.281 9.603-8.506.6-17.048.09-25.677.237V15.31h1.308c7.488 0 14.976-.058 22.462.02 5.481.056 10.456 1.663 13.944 6.111 4.53 5.78 4.892 12.331 2.245 18.93h-.001zM136.68 164.575c.99-.02 1.477.294 1.92 1.193 3.667 7.461 7.393 14.894 11.118 22.327.235.469.298 1.152 1.073 1.15 3.247-.002 6.494 0 9.957 0L147.31 163.42c10.168-3.191 12.914-12.057 11.094-20.092-1.68-7.41-8.39-12.511-16.662-12.56-7.578-.046-15.157-.012-22.736-.004-.31 0-.665-.124-.92.168v58.209h8.886v-24.542c3.375 0 6.543.041 9.708-.024zm-9.607-7.609v-18.171c4.88 0 9.668-.186 14.436.05 5.211.258 8.546 4.062 8.483 9.17-.063 5.097-3.425 8.646-8.768 8.889-4.303.195-8.621.054-12.933.062h-1.218zm75.525 32.119c8.082-1.855 13.505-6.834 15.136-15.245.878-4.531.657-9.152.65-15.13-.011-2.356.076-6.098-.273-9.831-.354-3.777-1.17-7.41-3.6-10.442-5.654-7.055-13.13-9.392-21.792-7.75-8.904 1.688-14.788 7.768-15.913 16.755-1.036 8.278-.78 16.643-.07 24.96.28 3.293 1.32 6.415 3.422 9.036 5.846 7.29 13.539 9.69 22.44 7.647zm-16.636-41.883c1.11-5.447 5.706-9 11.533-8.955 5.67.043 10.264 3.754 11.22 9.16.988 5.587.705 11.237.665 16.867-.02 2.79-.122 5.581-.66 8.34-1.035 5.304-5.564 9.015-11.157 9.091-5.732.079-10.432-3.435-11.568-8.754-.915-4.29-.762-8.663-.853-13.092.104-4.18-.038-8.453.82-12.657zm110.39 41.951h37.179v-7.994h-28.287v-17.427h24.088v-7.936h-24.1v-17.032h28.3v-7.907h-37.18v58.296zM97.198 169.097c.028-12.269.007-24.537.007-36.806v-1.458H88.36c-.28.497-.155.98-.156 1.44-.012 3.694-.007 7.39-.007 11.084 0 8.669.026 17.337-.008 26.006-.028 6.798-3.804 11.27-10.23 12.23-6.325.946-11.765-2.44-13.36-8.338-.434-1.607-.566-3.262-.567-4.922-.006-11.984-.001-23.969-.01-35.954 0-.503.133-1.031-.15-1.565h-8.695c-.029.295-.054.435-.054.574-.003 12.695-.007 25.39-.003 38.086.002 4.013.937 7.774 3.118 11.18 4.575 7.146 14.006 10.651 23.013 8.562 10.008-2.322 15.924-9.75 15.948-20.119h-.001zm140.872-38.34v58.404h8.865v-22.856c.712 0 1.225.003 1.738 0 4.31-.03 8.629.105 12.929-.122 11.866-.627 19.058-9.737 17.047-21.408-1.412-8.19-8.618-13.972-17.531-14.01-7.297-.033-14.594-.007-21.891-.007h-1.157v-.001zm9 7.98c5.108.184 10.155-.458 15.117.292 5.336.807 8.126 4.76 7.8 10.269-.294 4.957-3.72 8.491-8.915 8.735-4.626.216-9.27.045-14.002.045v-19.341zm20.934 73.157c-7.401-.005-13.084 5.797-13.084 13.358 0 7.445 5.728 13.302 13.012 13.308 7.39.005 13.067-5.808 13.063-13.378-.005-7.493-5.666-13.283-12.991-13.288zm-.087 24.123c-5.857-.019-10.437-4.785-10.422-10.843.015-6.008 4.71-10.815 10.515-10.764 5.866.05 10.43 4.803 10.423 10.855-.007 6.02-4.654 10.772-10.516 10.752zm30.573-24.123c-7.355-.004-13.026 5.752-13.041 13.237-.016 7.59 5.63 13.422 13.008 13.439 7.283.016 13.046-5.834 13.066-13.265.02-7.568-5.653-13.407-13.033-13.411zm-.053 24.124c-5.86-.001-10.433-4.752-10.427-10.833.007-6.029 4.682-10.828 10.496-10.775 5.83.053 10.526 4.91 10.492 10.848-.034 5.987-4.72 10.761-10.561 10.76zM97.215 212.35v21.11l-11.922-19.62c-1.166-1.918-1.257-1.953-3.667-1.483v25.674c.799.212 1.541.144 2.562.03v-21.32c4.163 6.84 8.114 13.335 12.07 19.828 1.128 1.85 1.283 1.906 3.52 1.397.002-8.554.002-17.108.002-25.76-.852-.007-1.627-.138-2.565.144zm148.989.014v11.596H232.01v-11.719c-.864-.072-1.603-.146-2.41.056v25.79c.807.078 1.584.151 2.535-.067v-11.436h14.173v11.513c.897.066 1.642.142 2.413-.044v-25.861c-.872.035-1.659-.158-2.518.172h.001zm-105.8 12.512c-1.019-.517-2.106-.828-3.214-1.097-1.695-.412-3.46-.577-5.06-1.334-2.74-1.299-3.226-4.328-1.003-6.395 1.48-1.376 3.294-1.847 5.261-1.543 2.75.424 4.405 2.015 4.676 4.836.88.04 1.63.142 2.48-.095-.121-2.772-1.193-4.916-3.547-6.194-3.044-1.653-6.19-1.66-9.214.07-2.452 1.404-3.744 3.556-3.557 6.455.198 3.078 2.079 4.75 4.837 5.603 1.216.376 2.48.6 3.72.9 1.562.376 3.14.707 4.434 1.768 1.588 1.303 2.053 3.494 1 5.23-1.345 2.22-3.51 2.96-5.948 2.912-2.288-.045-4.106-1.079-5.186-3.157-.339-.653-.47-1.413-.692-2.108h-2.327c-.088 1.024.144 1.916.509 2.792 2.177 5.233 9.477 6.778 14.082 2.977 4.088-3.374 3.459-9.228-1.251-11.62zm-78.869.157c-1.083-.598-2.254-.955-3.454-1.236-1.517-.356-3.051-.66-4.538-1.118-1.588-.49-2.757-1.469-2.92-3.272-.17-1.876.744-3.197 2.286-4.086 3.333-1.919 8.407-.843 9.014 3.99a6.8 6.8 0 0 0 2.311-.014c.127-.737.04-1.334-.124-1.933-1.057-3.854-5.076-6.145-9.416-5.36-4.072.739-6.646 3.492-6.638 7.104.008 3.3 1.902 5.408 5.733 6.358 1.879.465 3.824.69 5.624 1.438 1.812.754 3.159 1.928 3.185 4.085.022 1.828-1.297 3.63-3.255 4.42-3.341 1.346-8.056.676-9.121-4.704-.776-.025-1.564-.17-2.391.115.023.365.005.699.071 1.014.714 3.379 2.756 5.63 6.08 6.41 3.694.866 7.117.137 9.634-2.933 2.831-3.454 1.832-8.12-2.08-10.278h-.001zm98.528-.95c-1.825-.49-3.685-.851-5.5-1.377-1.65-.478-2.882-1.46-3.028-3.335-.152-1.937.843-3.237 2.456-4.13 3.793-2.1 7.535-.39 8.92 4.088.736.08 1.481.135 2.238-.042.176-.638.05-1.232-.1-1.828-.77-3.056-3.144-5.028-6.652-5.522-3.439-.485-7.01 1.106-8.586 3.826-1.49 2.572-1.051 5.965 1.026 7.822 1.162 1.039 2.581 1.544 4.064 1.916 1.832.46 3.732.674 5.484 1.423 1.702.727 3.019 1.835 3.11 3.848.095 2.092-1.044 3.486-2.794 4.41-4.161 2.195-8.179.318-9.631-4.538-.75.112-1.54-.137-2.345.173.03.385.025.718.085 1.038.611 3.227 3.07 5.763 6.238 6.449 3.879.84 7.803-.504 9.766-3.342 1.913-2.764 1.68-6.396-.557-8.603-1.178-1.163-2.623-1.855-4.194-2.276zm34.189.793c-1.022-.512-2.102-.833-3.21-1.092-1.52-.353-3.056-.66-4.538-1.135-1.52-.487-2.67-1.43-2.836-3.184-.176-1.87.702-3.176 2.23-4.119 2.875-1.774 8.382-1.234 9.05 3.935.735.194 1.481.117 2.378.046.105-1.783-.429-3.263-1.465-4.562-3.03-3.802-9.831-3.855-13.128-.115-3.073 3.486-1.874 8.579 2.452 10.26 1.007.39 2.087.598 3.137.873 1.641.432 3.35.633 4.871 1.47 3.041 1.672 3.327 5.253.545 7.35-1.627 1.228-3.514 1.657-5.507 1.297-2.885-.521-4.508-2.35-4.936-5.217-.86.005-1.61-.125-2.346.081-.184.555-.039 1.054.094 1.555.81 3.054 2.76 5.099 5.77 5.88 3.397.882 6.623.331 9.229-2.207 3.593-3.5 2.693-8.87-1.79-11.116zm-83.883 10.673v-8.89h10.59c.018-.925.189-1.71-.157-2.557h-10.444v-9.355h12.125v-2.49h-14.699v25.827h15.117c.129-.846.163-1.617-.044-2.535h-12.488zm-68.694-23.313c-.759-.074-1.497-.133-2.388.074v1.662c0 5.162.035 10.324-.01 15.485-.039 4.325-3.769 7.271-7.988 6.39-3.493-.729-5.326-3.173-5.356-7.28-.035-4.924-.003-9.85-.016-14.774-.001-.504.144-1.036-.152-1.523H23.53c0 6.191-.227 12.302.072 18.386.24 4.896 4.413 8.07 9.537 7.879 4.85-.181 8.562-3.732 8.664-8.57.122-5.775.033-11.554.028-17.331 0-.125-.096-.25-.156-.398zm172.118 2.274c3.394-.422 6.285.762 8.733 2.986l1.806-1.657c-4.825-5.097-12.992-5.268-17.902-.515-5.238 5.072-5.298 14.457-.125 19.66 4.849 4.878 13.117 4.742 17.99-.315-.5-.677-1.006-1.349-1.75-1.78-4.653 4.037-10.495 4.162-14.381.335-3.857-3.798-4.214-10.818-.761-15.115 1.647-2.049 3.786-3.275 6.39-3.599zm106.343-2.308h-2.409v25.875h13.454v-2.482h-11.045v-23.393zm-248.894.091v25.793h2.352v-25.853c-.843-.057-1.582-.145-2.352.06z" fill="#1c3a5b"/></svg>